# xmcd CD database file
#
# Track frame offsets:
#	150
#	34280
#	41086
#	85291
#	88035
#	107145
#	127519
#	130269
#	150995
#	181772
#	195461
#	232362
#	236129
#
# Disc length: 3854 seconds
#
# Revision: 0
# Processed by: cddbd v1.5.2PL0 Copyright (c) Steve Scherf et al.
# Submitted via: CDex 1.70beta2
#
DISCID=a50f0c0d
DTITLE=Jochen Busse/ Henning Venske - Legende trifft Urgetein
DYEAR=2008
DGENRE=Kabarett
TTITLE0=Wie die Herren den Abend gestalten wollen
TTITLE1=Musik
TTITLE2=Was die Herren in ihrem Leben geleistet haben
TTITLE3=Musik
TTITLE4=Sprachregelung
TTITLE5=Herr Busse plädiert für Vernunft
TTITLE6=Musik
TTITLE7=Die Herren schauen in die Zukunft
TTITLE8=Musik
TTITLE9=Dada - International
TTITLE10=Herr Venske plädiert für Steineschmeißen
TTITLE11=Musik
TTITLE12=Letzter Wille and Letzter Walzer
EXTD=YEAR: 2008
EXTT0=
EXTT1=
EXTT2=
EXTT3=
EXTT4=
EXTT5=
EXTT6=
EXTT7=
EXTT8=
EXTT9=
EXTT10=
EXTT11=
EXTT12=
PLAYORDER=
